<?xml version="1.0" standalone="no"?><!DOCTYPE svg PUBLIC "-//W3C//DTD SVG 1.1//EN" "http://www.w3.org/Graphics/SVG/1.1/DTD/svg11.dtd"><svg class="icon" width="200px" height="200.00px" viewBox="0 0 1024 1024" version="1.1" xmlns="http://www.w3.org/2000/svg"><path d="M804.755668 456.544081l-239.879094-239.879094c-18.055416-18.055416-18.055416-41.269521 0-59.324937 18.055416-18.055416 41.269521-18.055416 59.324937 0l239.879094 239.879094c18.055416 18.055416 18.055416 41.269521 0 59.324937-12.896725 18.055416-41.269521 18.055416-59.324937 0zM541.662469 358.528967l-136.70529-136.705289c-18.055416-18.055416-18.055416-41.269521 0-59.324937 18.055416-18.055416 41.269521-18.055416 59.324937 0l136.70529 136.705289c18.055416 18.055416 18.055416 41.269521 0 59.324937-15.476071 15.476071-41.269521 15.476071-59.324937 0zM461.702771 438.488665l-136.70529-136.70529c-18.055416-18.055416-18.055416-41.269521 0-59.324937 18.055416-18.055416 41.269521-18.055416 59.324937 0l136.70529 136.70529c18.055416 18.055416 18.055416 41.269521 0 59.324937-18.055416 15.476071-43.848866 15.476071-59.324937 0zM379.163728 518.448363l-136.70529-136.70529c-18.055416-18.055416-18.055416-41.269521 0-59.324937 18.055416-18.055416 41.269521-18.055416 59.324937 0l136.70529 136.70529c18.055416 18.055416 18.055416 41.269521 0 59.324937-15.476071 18.055416-41.269521 18.055416-59.324937 0zM296.624685 600.987406l-136.70529-136.70529c-18.055416-18.055416-18.055416-41.269521 0-59.324937 18.055416-18.055416 41.269521-18.055416 59.324937 0l136.70529 136.70529c18.055416 18.055416 18.055416 41.269521 0 59.324937-12.896725 15.476071-41.269521 15.476071-59.324937 0zM804.755668 616.463476l-136.70529-136.70529c-18.055416-18.055416-18.055416-41.269521 0-59.324937 18.055416-18.055416 41.269521-18.055416 59.324937 0l136.70529 136.70529c18.055416 18.055416 18.055416 41.269521 0 59.324937-15.476071 18.055416-43.848866 18.055416-59.324937 0zM724.79597 699.002519l-136.70529-136.70529c-18.055416-18.055416-18.055416-41.269521 0-59.324937 18.055416-18.055416 41.269521-18.055416 59.324937 0l136.70529 136.70529c18.055416 18.055416 18.055416 41.269521 0 59.324937-18.055416 18.055416-43.848866 18.055416-59.324937 0zM642.256927 781.541562l-136.70529-136.70529c-18.055416-18.055416-18.055416-41.269521 0-59.324937 18.055416-18.055416 41.269521-18.055416 59.324937 0l136.70529 136.70529c18.055416 18.055416 18.055416 41.269521 0 59.324937-18.055416 15.476071-43.848866 15.476071-59.324937 0zM559.717884 864.080605l-136.70529-136.70529c-18.055416-18.055416-18.055416-41.269521 0-59.324937 18.055416-18.055416 41.269521-18.055416 59.324937 0l136.70529 136.70529c18.055416 18.055416 18.055416 41.269521 0 59.324937-18.055416 15.476071-41.269521 15.476071-59.324937 0zM399.798489 866.65995l-239.879094-239.879094c-18.055416-18.055416-18.055416-41.269521 0-59.324937 18.055416-18.055416 41.269521-18.055416 59.324937 0l239.879094 239.879094c18.055416 18.055416 18.055416 41.269521 0 59.324937-18.055416 15.476071-43.848866 15.476071-59.324937 0z" fill="#E60012" /></svg>